<svg width="123" height="44" viewBox="0 0 123 44" fill="none" xmlns="http://www.w3.org/2000/svg">
<path d="M122.222 36.059V43.965H107.58V0H115.465V36.059H122.222V36.059ZM59.658 21.559C59.048 21.853 58.41 21.999 57.788 22.001V7.861H57.828C58.45 7.856 63.092 8.045 63.092 14.854C63.092 18.413 61.512 20.658 59.658 21.559V21.559ZM36.55 30.24L38.733 11.441L40.998 30.24H36.55ZM106.205 8.025V0.00699997H83.879L80.204 26.786L76.574 0.00600004H68.522L69.423 7.156C68.495 5.324 65.199 0.00600004 57.943 0.00600004C57.896 0.00400004 49.883 0.00600004 49.883 0.00600004L49.852 39.038L43.984 0.00699997L33.439 0.00199986L27.367 40.442L27.369 0.00699997H17.278L13.64 22.724L10.096 0.00600004H0V43.972H7.95V22.78L11.568 43.972H15.794L19.359 22.78V43.972H34.686L35.614 37.21H41.784L42.711 43.972L57.758 43.98H57.768V43.972H57.788V29.702L59.633 29.432L63.45 43.982H71.234L71.232 43.972H71.254L66.243 26.924C68.781 25.044 71.649 20.28 70.886 15.721V15.719C70.894 15.777 75.615 44 75.615 44L84.871 43.973L91.198 4.123V43.973H106.205V36.065H99.081V25.985H106.205V17.955H99.081V8.024H106.205V8.025Z" fill="#FEFEFE"/>
</svg>
